<?xml version="1.0" encoding="UTF-8" standalone="no"?>
<!-- Created with Inkscape (http://www.inkscape.org/) -->

<svg
   xmlns:dc="http://purl.org/dc/elements/1.1/"
   xmlns:cc="http://creativecommons.org/ns#"
   xmlns:rdf="http://www.w3.org/1999/02/22-rdf-syntax-ns#"
   xmlns:svg="http://www.w3.org/2000/svg"
   xmlns="http://www.w3.org/2000/svg"
   xmlns:xlink="http://www.w3.org/1999/xlink"
   xmlns:sodipodi="http://sodipodi.sourceforge.net/DTD/sodipodi-0.dtd"
   xmlns:inkscape="http://www.inkscape.org/namespaces/inkscape"
   width="400"
   height="575"
   id="svg2"
   version="1.1"
   inkscape:version="0.48.5 r10040"
   sodipodi:docname="Background.svg">
  <defs
     id="defs4">
    <linearGradient
       x1="16.972679"
       y1="614.01379"
       x2="101.51511"
       y2="521.39832"
       id="linearGradient3113"
       xlink:href="#linearGradient3087"
       gradientUnits="userSpaceOnUse"
       gradientTransform="translate(66,19)" />
    <linearGradient
       id="linearGradient3087">
      <stop
         id="stop3089"
         style="stop-color:#f9f9f9;stop-opacity:1"
         offset="0" />
      <stop
         id="stop3091"
         style="stop-color:#f9f9f9;stop-opacity:0"
         offset="1" />
    </linearGradient>
    <linearGradient
       y2="521.39832"
       x2="101.51511"
       y1="614.01379"
       x1="16.972679"
       gradientTransform="translate(66,19)"
       gradientUnits="userSpaceOnUse"
       id="linearGradient3005"
       xlink:href="#linearGradient3087"
       inkscape:collect="always" />
    <linearGradient
       y2="521.39832"
       x2="101.51511"
       y1="614.01379"
       x1="16.972679"
       gradientTransform="translate(66,19)"
       gradientUnits="userSpaceOnUse"
       id="linearGradient3005-5"
       xlink:href="#linearGradient3087-5"
       inkscape:collect="always" />
    <linearGradient
       id="linearGradient3087-5">
      <stop
         id="stop3089-6"
         style="stop-color:#f9f9f9;stop-opacity:1"
         offset="0" />
      <stop
         id="stop3091-9"
         style="stop-color:#f9f9f9;stop-opacity:0"
         offset="1" />
    </linearGradient>
    <linearGradient
       y2="521.39832"
       x2="101.51511"
       y1="614.01379"
       x1="16.972679"
       gradientTransform="translate(66,19)"
       gradientUnits="userSpaceOnUse"
       id="linearGradient3005-7"
       xlink:href="#linearGradient3087-6"
       inkscape:collect="always" />
    <linearGradient
       id="linearGradient3087-6">
      <stop
         id="stop3089-1"
         style="stop-color:#f9f9f9;stop-opacity:1"
         offset="0" />
      <stop
         id="stop3091-7"
         style="stop-color:#f9f9f9;stop-opacity:0"
         offset="1" />
    </linearGradient>
    <linearGradient
       y2="521.39832"
       x2="101.51511"
       y1="614.01379"
       x1="16.972679"
       gradientTransform="translate(66,19)"
       gradientUnits="userSpaceOnUse"
       id="linearGradient3833"
       xlink:href="#linearGradient3087-6"
       inkscape:collect="always" />
    <linearGradient
       y2="521.39832"
       x2="101.51511"
       y1="614.01379"
       x1="16.972679"
       gradientTransform="translate(66,19)"
       gradientUnits="userSpaceOnUse"
       id="linearGradient3833-0"
       xlink:href="#linearGradient3087-6-6"
       inkscape:collect="always" />
    <linearGradient
       id="linearGradient3087-6-6">
      <stop
         id="stop3089-1-6"
         style="stop-color:#f9f9f9;stop-opacity:1"
         offset="0" />
      <stop
         id="stop3091-7-4"
         style="stop-color:#f9f9f9;stop-opacity:0"
         offset="1" />
    </linearGradient>
    <linearGradient
       y2="521.39832"
       x2="101.51511"
       y1="614.01379"
       x1="16.972679"
       gradientTransform="translate(66,19)"
       gradientUnits="userSpaceOnUse"
       id="linearGradient3876"
       xlink:href="#linearGradient3087-6-6"
       inkscape:collect="always" />
    <linearGradient
       y2="521.39832"
       x2="101.51511"
       y1="614.01379"
       x1="16.972679"
       gradientTransform="translate(66,19)"
       gradientUnits="userSpaceOnUse"
       id="linearGradient3833-9"
       xlink:href="#linearGradient3087-6-63"
       inkscape:collect="always" />
    <linearGradient
       id="linearGradient3087-6-63">
      <stop
         id="stop3089-1-4"
         style="stop-color:#f9f9f9;stop-opacity:1"
         offset="0" />
      <stop
         id="stop3091-7-9"
         style="stop-color:#f9f9f9;stop-opacity:0"
         offset="1" />
    </linearGradient>
    <linearGradient
       y2="521.39832"
       x2="101.51511"
       y1="614.01379"
       x1="16.972679"
       gradientTransform="translate(66,19)"
       gradientUnits="userSpaceOnUse"
       id="linearGradient3938"
       xlink:href="#linearGradient3087-6-63"
       inkscape:collect="always" />
    <linearGradient
       y2="521.39832"
       x2="101.51511"
       y1="614.01379"
       x1="16.972679"
       gradientTransform="translate(66,19)"
       gradientUnits="userSpaceOnUse"
       id="linearGradient3833-1"
       xlink:href="#linearGradient3087-6-5"
       inkscape:collect="always" />
    <linearGradient
       id="linearGradient3087-6-5">
      <stop
         id="stop3089-1-3"
         style="stop-color:#f9f9f9;stop-opacity:1"
         offset="0" />
      <stop
         id="stop3091-7-0"
         style="stop-color:#f9f9f9;stop-opacity:0"
         offset="1" />
    </linearGradient>
    <linearGradient
       y2="521.39832"
       x2="101.51511"
       y1="614.01379"
       x1="16.972679"
       gradientTransform="translate(66,19)"
       gradientUnits="userSpaceOnUse"
       id="linearGradient3975"
       xlink:href="#linearGradient3087-6-5"
       inkscape:collect="always" />
    <linearGradient
       y2="521.39832"
       x2="101.51511"
       y1="614.01379"
       x1="16.972679"
       gradientTransform="translate(66,19)"
       gradientUnits="userSpaceOnUse"
       id="linearGradient3833-92"
       xlink:href="#linearGradient3087-6-1"
       inkscape:collect="always" />
    <linearGradient
       id="linearGradient3087-6-1">
      <stop
         id="stop3089-1-49"
         style="stop-color:#f9f9f9;stop-opacity:1"
         offset="0" />
      <stop
         id="stop3091-7-6"
         style="stop-color:#f9f9f9;stop-opacity:0"
         offset="1" />
    </linearGradient>
    <linearGradient
       y2="521.39832"
       x2="101.51511"
       y1="614.01379"
       x1="16.972679"
       gradientTransform="translate(66,19)"
       gradientUnits="userSpaceOnUse"
       id="linearGradient3975-3"
       xlink:href="#linearGradient3087-6-1"
       inkscape:collect="always" />
    <linearGradient
       inkscape:collect="always"
       xlink:href="#linearGradient3087-6-1"
       id="linearGradient4015"
       gradientUnits="userSpaceOnUse"
       gradientTransform="translate(66,19)"
       x1="16.972679"
       y1="614.01379"
       x2="101.51511"
       y2="521.39832" />
  </defs>
  <sodipodi:namedview
     id="base"
     pagecolor="#ffffff"
     bordercolor="#666666"
     borderopacity="1.0"
     inkscape:pageopacity="0.0"
     inkscape:pageshadow="2"
     inkscape:zoom="0.50454303"
     inkscape:cx="140.2943"
     inkscape:cy="334.54903"
     inkscape:document-units="pt"
     inkscape:current-layer="layer1"
     showgrid="false"
     showguides="true"
     inkscape:guide-bbox="true"
     fit-margin-top="0"
     fit-margin-left="0"
     fit-margin-right="0"
     fit-margin-bottom="0"
     inkscape:window-width="803"
     inkscape:window-height="663"
     inkscape:window-x="0"
     inkscape:window-y="0"
     inkscape:window-maximized="0" />
  <metadata
     id="metadata7">
    <rdf:RDF>
      <cc:Work
         rdf:about="">
        <dc:format>image/svg+xml</dc:format>
        <dc:type
           rdf:resource="http://purl.org/dc/dcmitype/StillImage" />
        <dc:title />
      </cc:Work>
    </rdf:RDF>
  </metadata>
  <g
     inkscape:label="Layer 1"
     inkscape:groupmode="layer"
     id="layer1"
     transform="translate(0,-476.69385)">
    <rect
       style="fill:#80e5ff"
       id="rect2991"
       width="400"
       height="575"
       x="0"
       y="476.69385"
       ry="0" />
    <g
       transform="translate(119.9818,289.94212)"
       id="layer1-3">
      <path
         d="m 188.5,534.375 c -9.28342,0 -17.7368,3.74399 -24.0625,9.90625 -3.0776,-0.92144 -6.34132,-1.4375 -9.71875,-1.4375 -18.68059,0 -33.8125,15.13191 -33.8125,33.8125 0,0.57335 0.003,1.1524 0.0312,1.71875 -15.74106,3.22109 -27.59375,17.15046 -27.59375,33.84375 0,19.07805 15.48445,34.53125 34.5625,34.53125 11.89896,0 22.38102,-5.99974 28.59375,-15.15625 5.74002,11.11769 17.31299,18.71875 30.6875,18.71875 12.21418,0 22.95134,-6.33845 29.09375,-15.90625 0.46773,0.0184 0.93401,0.0312 1.40625,0.0312 19.47551,0 35.28125,-15.77449 35.28125,-35.25 0,-17.57408 -12.86724,-32.16598 -29.6875,-34.84375 C 219.98202,547.2406 205.66544,534.375 188.5,534.375 z"
         transform="translate(0,2.6171875e-5)"
         id="path3068"
         style="fill:url(#linearGradient3005);fill-opacity:1;stroke:#ececec"
         inkscape:connector-curvature="0" />
    </g>
    <g
       transform="translate(-87.848334,141.61042)"
       id="layer1-3-1">
      <path
         d="m 188.5,534.375 c -9.28342,0 -17.7368,3.74399 -24.0625,9.90625 -3.0776,-0.92144 -6.34132,-1.4375 -9.71875,-1.4375 -18.68059,0 -33.8125,15.13191 -33.8125,33.8125 0,0.57335 0.003,1.1524 0.0312,1.71875 -15.74106,3.22109 -27.59375,17.15046 -27.59375,33.84375 0,19.07805 15.48445,34.53125 34.5625,34.53125 11.89896,0 22.38102,-5.99974 28.59375,-15.15625 5.74002,11.11769 17.31299,18.71875 30.6875,18.71875 12.21418,0 22.95134,-6.33845 29.09375,-15.90625 0.46773,0.0184 0.93401,0.0312 1.40625,0.0312 19.47551,0 35.28125,-15.77449 35.28125,-35.25 0,-17.57408 -12.86724,-32.16598 -29.6875,-34.84375 C 219.98202,547.2406 205.66544,534.375 188.5,534.375 z"
         transform="translate(0,2.6171875e-5)"
         id="path3068-6"
         style="fill:url(#linearGradient3833);fill-opacity:1;stroke:#ececec"
         inkscape:connector-curvature="0" />
    </g>
    <g
       transform="translate(49.496671,-23.764169)"
       id="layer1-3-1-7">
      <path
         d="m 188.5,534.375 c -9.28342,0 -17.7368,3.74399 -24.0625,9.90625 -3.0776,-0.92144 -6.34132,-1.4375 -9.71875,-1.4375 -18.68059,0 -33.8125,15.13191 -33.8125,33.8125 0,0.57335 0.003,1.1524 0.0312,1.71875 -15.74106,3.22109 -27.59375,17.15046 -27.59375,33.84375 0,19.07805 15.48445,34.53125 34.5625,34.53125 11.89896,0 22.38102,-5.99974 28.59375,-15.15625 5.74002,11.11769 17.31299,18.71875 30.6875,18.71875 12.21418,0 22.95134,-6.33845 29.09375,-15.90625 0.46773,0.0184 0.93401,0.0312 1.40625,0.0312 19.47551,0 35.28125,-15.77449 35.28125,-35.25 0,-17.57408 -12.86724,-32.16598 -29.6875,-34.84375 C 219.98202,547.2406 205.66544,534.375 188.5,534.375 z"
         transform="translate(0,2.6171875e-5)"
         id="path3068-6-8"
         style="fill:url(#linearGradient3876);fill-opacity:1;stroke:#ececec"
         inkscape:connector-curvature="0" />
    </g>
    <g
       transform="translate(-4.6869205,2919.0016)"
       id="layer1-3-1-9">
      <path
         d="m 188.5,534.375 c -9.28342,0 -17.7368,3.74399 -24.0625,9.90625 -3.0776,-0.92144 -6.34132,-1.4375 -9.71875,-1.4375 -18.68059,0 -33.8125,15.13191 -33.8125,33.8125 0,0.57335 0.003,1.1524 0.0312,1.71875 -15.74106,3.22109 -27.59375,17.15046 -27.59375,33.84375 0,19.07805 15.48445,34.53125 34.5625,34.53125 11.89896,0 22.38102,-5.99974 28.59375,-15.15625 5.74002,11.11769 17.31299,18.71875 30.6875,18.71875 12.21418,0 22.95134,-6.33845 29.09375,-15.90625 0.46773,0.0184 0.93401,0.0312 1.40625,0.0312 19.47551,0 35.28125,-15.77449 35.28125,-35.25 0,-17.57408 -12.86724,-32.16598 -29.6875,-34.84375 C 219.98202,547.2406 205.66544,534.375 188.5,534.375 z"
         transform="translate(0,2.6171875e-5)"
         id="path3068-6-5"
         style="fill:url(#linearGradient3938);fill-opacity:1;stroke:#ececec"
         inkscape:connector-curvature="0" />
    </g>
    <g
       transform="translate(-93.876542,336.4666)"
       id="layer1-3-1-5">
      <path
         d="m 188.5,534.375 c -9.28342,0 -17.7368,3.74399 -24.0625,9.90625 -3.0776,-0.92144 -6.34132,-1.4375 -9.71875,-1.4375 -18.68059,0 -33.8125,15.13191 -33.8125,33.8125 0,0.57335 0.003,1.1524 0.0312,1.71875 -15.74106,3.22109 -27.59375,17.15046 -27.59375,33.84375 0,19.07805 15.48445,34.53125 34.5625,34.53125 11.89896,0 22.38102,-5.99974 28.59375,-15.15625 5.74002,11.11769 17.31299,18.71875 30.6875,18.71875 12.21418,0 22.95134,-6.33845 29.09375,-15.90625 0.46773,0.0184 0.93401,0.0312 1.40625,0.0312 19.47551,0 35.28125,-15.77449 35.28125,-35.25 0,-17.57408 -12.86724,-32.16598 -29.6875,-34.84375 C 219.98202,547.2406 205.66544,534.375 188.5,534.375 z"
         transform="translate(0,2.6171875e-5)"
         id="path3068-6-2"
         style="fill:url(#linearGradient4015);fill-opacity:1;stroke:#ececec"
         inkscape:connector-curvature="0" />
    </g>
    <g
       transform="translate(-55.827286,370.0129)"
       id="layer1-3-8"
       style="opacity:0.84166666999999984;fill:#ffffff;fill-opacity:0.89823008">
      <path
         d="m 188.5,534.375 c -9.28342,0 -17.7368,3.74399 -24.0625,9.90625 -3.0776,-0.92144 -6.34132,-1.4375 -9.71875,-1.4375 -18.68059,0 -33.8125,15.13191 -33.8125,33.8125 0,0.57335 0.003,1.1524 0.0312,1.71875 -15.74106,3.22109 -27.59375,17.15046 -27.59375,33.84375 0,19.07805 15.48445,34.53125 34.5625,34.53125 11.89896,0 22.38102,-5.99974 28.59375,-15.15625 5.74002,11.11769 17.31299,18.71875 30.6875,18.71875 12.21418,0 22.95134,-6.33845 29.09375,-15.90625 0.46773,0.0184 0.93401,0.0312 1.40625,0.0312 19.47551,0 35.28125,-15.77449 35.28125,-35.25 0,-17.57408 -12.86724,-32.16598 -29.6875,-34.84375 C 219.98202,547.2406 205.66544,534.375 188.5,534.375 z"
         transform="translate(0,2.6171875e-5)"
         id="path3068-7"
         style="fill:#ffffff;fill-opacity:0.89823008;stroke:#ececec"
         inkscape:connector-curvature="0" />
    </g>
    <g
       transform="translate(-49.602342,104.7437)"
       id="layer1-3-8-3"
       style="opacity:0.84166666999999984;fill:#ffffff;fill-opacity:0.89823008">
      <path
         d="m 188.5,534.375 c -9.28342,0 -17.7368,3.74399 -24.0625,9.90625 -3.0776,-0.92144 -6.34132,-1.4375 -9.71875,-1.4375 -18.68059,0 -33.8125,15.13191 -33.8125,33.8125 0,0.57335 0.003,1.1524 0.0312,1.71875 -15.74106,3.22109 -27.59375,17.15046 -27.59375,33.84375 0,19.07805 15.48445,34.53125 34.5625,34.53125 11.89896,0 22.38102,-5.99974 28.59375,-15.15625 5.74002,11.11769 17.31299,18.71875 30.6875,18.71875 12.21418,0 22.95134,-6.33845 29.09375,-15.90625 0.46773,0.0184 0.93401,0.0312 1.40625,0.0312 19.47551,0 35.28125,-15.77449 35.28125,-35.25 0,-17.57408 -12.86724,-32.16598 -29.6875,-34.84375 C 219.98202,547.2406 205.66544,534.375 188.5,534.375 z"
         transform="translate(0,2.6171875e-5)"
         id="path3068-7-3"
         style="fill:#ffffff;fill-opacity:0.89823008;stroke:#ececec"
         inkscape:connector-curvature="0" />
    </g>
    <g
       transform="translate(109.54457,-15.045082)"
       id="layer1-3-8-3-6"
       style="opacity:0.84166666999999984;fill:#ffffff;fill-opacity:0.89823008">
      <path
         d="m 188.5,534.375 c -9.28342,0 -17.7368,3.74399 -24.0625,9.90625 -3.0776,-0.92144 -6.34132,-1.4375 -9.71875,-1.4375 -18.68059,0 -33.8125,15.13191 -33.8125,33.8125 0,0.57335 0.003,1.1524 0.0312,1.71875 -15.74106,3.22109 -27.59375,17.15046 -27.59375,33.84375 0,19.07805 15.48445,34.53125 34.5625,34.53125 11.89896,0 22.38102,-5.99974 28.59375,-15.15625 5.74002,11.11769 17.31299,18.71875 30.6875,18.71875 12.21418,0 22.95134,-6.33845 29.09375,-15.90625 0.46773,0.0184 0.93401,0.0312 1.40625,0.0312 19.47551,0 35.28125,-15.77449 35.28125,-35.25 0,-17.57408 -12.86724,-32.16598 -29.6875,-34.84375 C 219.98202,547.2406 205.66544,534.375 188.5,534.375 z"
         transform="translate(0,2.6171875e-5)"
         id="path3068-7-3-1"
         style="fill:#ffffff;fill-opacity:0.89823008;stroke:#ececec"
         inkscape:connector-curvature="0" />
    </g>
    <g
       transform="translate(147.92643,273.04287)"
       id="layer1-3-8-3-6-7"
       style="opacity:0.84166666999999984;fill:#ffffff;fill-opacity:0.89823008">
      <path
         d="m 188.5,534.375 c -9.28342,0 -17.7368,3.74399 -24.0625,9.90625 -3.0776,-0.92144 -6.34132,-1.4375 -9.71875,-1.4375 -18.68059,0 -33.8125,15.13191 -33.8125,33.8125 0,0.57335 0.003,1.1524 0.0312,1.71875 -15.74106,3.22109 -27.59375,17.15046 -27.59375,33.84375 0,19.07805 15.48445,34.53125 34.5625,34.53125 11.89896,0 22.38102,-5.99974 28.59375,-15.15625 5.74002,11.11769 17.31299,18.71875 30.6875,18.71875 12.21418,0 22.95134,-6.33845 29.09375,-15.90625 0.46773,0.0184 0.93401,0.0312 1.40625,0.0312 19.47551,0 35.28125,-15.77449 35.28125,-35.25 0,-17.57408 -12.86724,-32.16598 -29.6875,-34.84375 C 219.98202,547.2406 205.66544,534.375 188.5,534.375 z"
         transform="translate(0,2.6171875e-5)"
         id="path3068-7-3-1-4"
         style="fill:#ffffff;fill-opacity:0.89823008;stroke:#ececec"
         inkscape:connector-curvature="0" />
    </g>
    <rect
       style="fill:#80e5ff"
       id="rect2991-2"
       width="400"
       height="575"
       x="511.53494"
       y="102.20869"
       ry="0" />
  </g>
</svg>
