<?xml version="1.0" encoding="UTF-8" standalone="no"?>
<!-- Created with Inkscape (http://www.inkscape.org/) -->

<svg
   xmlns:dc="http://purl.org/dc/elements/1.1/"
   xmlns:cc="http://creativecommons.org/ns#"
   xmlns:rdf="http://www.w3.org/1999/02/22-rdf-syntax-ns#"
   xmlns:svg="http://www.w3.org/2000/svg"
   xmlns="http://www.w3.org/2000/svg"
   xmlns:xlink="http://www.w3.org/1999/xlink"
   version="1.1"
   width="744.09448"
   height="1052.3622"
   id="svg3054">
  <defs
     id="defs3056">
    <linearGradient
       id="linearGradient3087">
      <stop
         id="stop3089"
         style="stop-color:#f9f9f9;stop-opacity:1"
         offset="0" />
      <stop
         id="stop3091"
         style="stop-color:#f9f9f9;stop-opacity:0"
         offset="1" />
    </linearGradient>
    <linearGradient
       x1="50"
       y1="616.36218"
       x2="333"
       y2="628.36218"
       id="linearGradient3093"
       xlink:href="#linearGradient3087"
       gradientUnits="userSpaceOnUse" />
    <linearGradient
       x1="16.972679"
       y1="614.01379"
       x2="101.51511"
       y2="521.39832"
       id="linearGradient3113"
       xlink:href="#linearGradient3087"
       gradientUnits="userSpaceOnUse"
       gradientTransform="translate(66,19)" />
  </defs>
  <metadata
     id="metadata3059">
    <rdf:RDF>
      <cc:Work
         rdf:about="">
        <dc:format>image/svg+xml</dc:format>
        <dc:type
           rdf:resource="http://purl.org/dc/dcmitype/StillImage" />
        <dc:title></dc:title>
      </cc:Work>
    </rdf:RDF>
  </metadata>
  <g
     transform="translate(0,-2.6171875e-5)"
     id="layer1">
    <path
       d="m 188.5,534.375 c -9.28342,0 -17.7368,3.74399 -24.0625,9.90625 -3.0776,-0.92144 -6.34132,-1.4375 -9.71875,-1.4375 -18.68059,0 -33.8125,15.13191 -33.8125,33.8125 0,0.57335 0.003,1.1524 0.0312,1.71875 -15.74106,3.22109 -27.59375,17.15046 -27.59375,33.84375 0,19.07805 15.48445,34.53125 34.5625,34.53125 11.89896,0 22.38102,-5.99974 28.59375,-15.15625 5.74002,11.11769 17.31299,18.71875 30.6875,18.71875 12.21418,0 22.95134,-6.33845 29.09375,-15.90625 0.46773,0.0184 0.93401,0.0312 1.40625,0.0312 19.47551,0 35.28125,-15.77449 35.28125,-35.25 0,-17.57408 -12.86724,-32.16598 -29.6875,-34.84375 C 219.98202,547.2406 205.66544,534.375 188.5,534.375 z"
       transform="translate(0,2.6171875e-5)"
       id="path3068"
       style="fill:url(#linearGradient3113);fill-opacity:1;stroke:#ececec" />
  </g>
</svg>
